<svg width="1347" height="184" viewBox="0 0 1347 184" fill="none" xmlns="http://www.w3.org/2000/svg">
<path d="
M 165 94
C 172.115 83.7344 178.5 78.5 195 78
C 211.654 78.0088 227 88 228 106
V 125
M 228 176
V 125
M 228 125
L 186.5 125.5
C 178.5 125.5 157.5 128.5 157 154
C 157.5 181 192 180 207 173
C 218.5 166 224.976 146.839 228 125
Z
M 283 45
L 283 125.5
M 283 175
L 283 125.5
M 283 125.5
H 319
M 319 125.5
L 350 80
M 319 125.5
L 351 176
M 400 125.5
L 468 125
C 468 120 468 119.5 468 108
C 467.5 88 451.5 79 434.5 78.5
C 412 79 400.5 95 400 110.5
C 400.015 118.555 400 117 400 125.5
Z
M 400 125.5
L 400.5 148
C 401 159 409.181 170.004 419 175
C 431.756 179.494 460.5 178 467.5 160.5
M 792 16.5
L 791.5 111
M 792 147
L 791.5 111
M 857.5 147
V 79
C 857.5 63.0001 849.5 51 828 50
C 807.5 52 794.5 59.5 791.5 111
M 914 53
L 948.5 53
L 949 147
M 949 147
H 907
M 949 147
H 989
M 1023 53
L 1055 53
M 1101.5 53
H 1055
M 1055 53
V 20
M 1055 53
V 123.5
C 1055 137.5 1058 146.5 1075 146.5
H 1098.5
M 1150 98
L 1218.5 97
V 82.5
C 1218.5 60 1201 51 1183.5 50.5
C 1163 51 1150.5 62.5 1150 82
V 98
Z
M 1150 98
V 118
C 1151 140.5 1169 149 1184 149.5
C 1202 149 1210.5 143.5 1216.5 131
M 1258.5 17
H 1296
L 1296.5 122.5
C 1296.5 135.5 1301.5 146.5 1318 146.5
L 1345 147" stroke="black" stroke-width="12"/>
<path d="
M 50.9999 9.99999
H 96.9999
M 96.9999 9.99999
C 96.9999 9.99999 96.9999 106 96.9999 136
C 97 166 72.5 175.5 50.9999 175
C 28 173.5 12 166 8 137
M 96.9999 9.99999
L 474.5 8.5
M 732.5 42.5
C 732.5 38.5 728 8.00002 690.5 8
C 661 7.49999 647.5 32 647.5 47
V 136
C 647.5 155 659 174 690.5 175
C 712.5 174.5 1321 174.5 1346.5 174.5" stroke="black" stroke-width="15"/>
</svg>
