<svg width="1347" height="184" viewBox="0 0 1347 184" fill="none" xmlns="http://www.w3.org/2000/svg">
<path d="M165 94C172.115 83.7344 178.5 78.5 195 78C211.654 78.0088 227 88 228 106V125M228 176V125M228 125L186.5 125.5C178.5 125.5 157.5 128.5 157 154C157.5 181 192 180 207 173C218.5 166 224.976 146.839 228 125ZM283 45L283 125.5M283 175L283 125.5M283 125.5H319M319 125.5L350 80M319 125.5L351 176M400 125.5L468 125C468 120 468 119.5 468 108C467.5 88 451.5 79 434.5 78.5C412 79 400.5 95 400 110.5C400.015 118.555 400 117 400 125.5ZM400 125.5L400.5 148C401 159 409.181 170.004 419 175C431.756 179.494 460.5 178 467.5 160.5M792 16.5L791.5 111M792 147L791.5 111M857.5 147V79C857.5 63.0001 849.5 51 828 50C807.5 52 794.5 59.5 791.5 111M914 53L948.5 53L949 147M949 147H907M949 147H989M1023 53L1055 53M1101.5 53H1055M1055 53V20M1055 53V123.5C1055 137.5 1058 146.5 1075 146.5H1098.5M1150 98L1218.5 97V82.5C1218.5 60 1201 51 1183.5 50.5C1163 51 1150.5 62.5 1150 82V98ZM1150 98V118C1151 140.5 1169 149 1184 149.5C1202 149 1210.5 143.5 1216.5 131M1258.5 17H1296L1296.5 122.5C1296.5 135.5 1301.5 146.5 1318 146.5L1345 147" stroke="black" stroke-width="12"/>
<path d="M50.9999 9.99999H96.9999M96.9999 9.99999C96.9999 9.99999 96.9999 106 96.9999 136C97 166 72.5 175.5 50.9999 175C28 173.5 12 166 8 137M96.9999 9.99999L474.5 8.5M732.5 42.5C732.5 38.5 728 8.00002 690.5 8C661 7.49999 647.5 32 647.5 47V136C647.5 155 659 174 690.5 175C712.5 174.5 1321 174.5 1346.5 174.5" stroke="black" stroke-width="15"/>
</svg>
